<svg width="331" height="331" viewBox="0 0 331 331" fill="none" xmlns="http://www.w3.org/2000/svg">
<path d="M151.708 267.903V173.43L68.9583 125.504V219.977L151.708 267.903ZM179.292 267.903L262.042 219.977V125.504L179.292 173.43V267.903ZM165.5 149.64L247.216 102.403L165.5 55.1667L83.7844 102.403L165.5 149.64ZM55.1667 244.113C50.7993 241.584 47.4089 238.251 44.9953 234.114C42.5818 229.976 41.375 225.379 41.375 220.322V110.678C41.375 105.621 42.5818 101.024 44.9953 96.8865C47.4089 92.749 50.7993 89.416 55.1667 86.8875L151.708 31.3761C156.076 28.8476 160.673 27.5834 165.5 27.5834C170.327 27.5834 174.924 28.8476 179.292 31.3761L275.833 86.8875C280.201 89.416 283.591 92.749 286.005 96.8865C288.418 101.024 289.625 105.621 289.625 110.678V220.322C289.625 225.379 288.418 229.976 286.005 234.114C283.591 238.251 280.201 241.584 275.833 244.113L179.292 299.624C174.924 302.152 170.327 303.417 165.5 303.417C160.673 303.417 156.076 302.152 151.708 299.624L55.1667 244.113Z" fill="#040247"/>
</svg>
