<svg width="59" height="59" viewBox="0 0 59 59" fill="none" xmlns="http://www.w3.org/2000/svg">
<path d="M11.2292 44.0417C13.7083 42.1458 16.4792 40.651 19.5417 39.5573C22.6042 38.4635 25.8125 37.9167 29.1667 37.9167C32.5208 37.9167 35.7292 38.4635 38.7917 39.5573C41.8542 40.651 44.625 42.1458 47.1042 44.0417C48.8056 42.0486 50.1302 39.7882 51.0781 37.2604C52.026 34.7326 52.5 32.0347 52.5 29.1667C52.5 22.7014 50.2274 17.1962 45.6823 12.651C41.1371 8.1059 35.6319 5.83333 29.1667 5.83333C22.7014 5.83333 17.1962 8.1059 12.651 12.651C8.1059 17.1962 5.83333 22.7014 5.83333 29.1667C5.83333 32.0347 6.30729 34.7326 7.25521 37.2604C8.20312 39.7882 9.52778 42.0486 11.2292 44.0417ZM29.1667 32.0833C26.2986 32.0833 23.8802 31.099 21.9115 29.1302C19.9427 27.1615 18.9583 24.7431 18.9583 21.875C18.9583 19.0069 19.9427 16.5885 21.9115 14.6198C23.8802 12.651 26.2986 11.6667 29.1667 11.6667C32.0347 11.6667 34.4531 12.651 36.4219 14.6198C38.3906 16.5885 39.375 19.0069 39.375 21.875C39.375 24.7431 38.3906 27.1615 36.4219 29.1302C34.4531 31.099 32.0347 32.0833 29.1667 32.0833ZM29.1667 58.3333C25.1319 58.3333 21.3403 57.5677 17.7917 56.0365C14.2431 54.5052 11.1562 52.4271 8.53125 49.8021C5.90625 47.1771 3.82812 44.0903 2.29688 40.5417C0.765625 36.9931 0 33.2014 0 29.1667C0 25.1319 0.765625 21.3403 2.29688 17.7917C3.82812 14.2431 5.90625 11.1562 8.53125 8.53125C11.1562 5.90625 14.2431 3.82812 17.7917 2.29688C21.3403 0.765625 25.1319 0 29.1667 0C33.2014 0 36.9931 0.765625 40.5417 2.29688C44.0903 3.82812 47.1771 5.90625 49.8021 8.53125C52.4271 11.1562 54.5052 14.2431 56.0365 17.7917C57.5677 21.3403 58.3333 25.1319 58.3333 29.1667C58.3333 33.2014 57.5677 36.9931 56.0365 40.5417C54.5052 44.0903 52.4271 47.1771 49.8021 49.8021C47.1771 52.4271 44.0903 54.5052 40.5417 56.0365C36.9931 57.5677 33.2014 58.3333 29.1667 58.3333ZM29.1667 52.5C31.7431 52.5 34.1736 52.1233 36.4583 51.3698C38.7431 50.6163 40.8333 49.5347 42.7292 48.125C40.8333 46.7153 38.7431 45.6337 36.4583 44.8802C34.1736 44.1267 31.7431 43.75 29.1667 43.75C26.5903 43.75 24.1597 44.1267 21.875 44.8802C19.5903 45.6337 17.5 46.7153 15.6042 48.125C17.5 49.5347 19.5903 50.6163 21.875 51.3698C24.1597 52.1233 26.5903 52.5 29.1667 52.5ZM29.1667 26.25C30.4306 26.25 31.4757 25.8368 32.3021 25.0104C33.1285 24.184 33.5417 23.1389 33.5417 21.875C33.5417 20.6111 33.1285 19.566 32.3021 18.7396C31.4757 17.9132 30.4306 17.5 29.1667 17.5C27.9028 17.5 26.8576 17.9132 26.0312 18.7396C25.2049 19.566 24.7917 20.6111 24.7917 21.875C24.7917 23.1389 25.2049 24.184 26.0312 25.0104C26.8576 25.8368 27.9028 26.25 29.1667 26.25Z" fill="white"/>
</svg>
