<svg width="43" height="43" viewBox="0 0 43 43" fill="none" xmlns="http://www.w3.org/2000/svg">
<path d="M22.8438 26.5391V24.5234H28.2188V26.5391H22.8438ZM24.8594 33.5938V31.9141H22.8438V29.8984H24.8594V28.2188H26.875V33.5938H24.8594ZM28.2188 31.9141V29.8984H33.5938V31.9141H28.2188ZM29.5625 28.2188V22.8438H31.5781V24.5234H33.5938V26.5391H31.5781V28.2188H29.5625ZM33.2914 18.8125H30.5031C29.9208 16.8417 28.8122 15.2292 27.1773 13.975C25.5424 12.7208 23.65 12.0938 21.5 12.0938C18.8797 12.0938 16.6569 13.0064 14.8316 14.8316C13.0064 16.6569 12.0938 18.8797 12.0938 21.5C12.0938 23.1125 12.4577 24.5906 13.1855 25.9344C13.9134 27.2781 14.8932 28.3755 16.125 29.2266V25.5312H18.8125V33.5938H10.75V30.9062H13.9078C12.5193 29.7865 11.4219 28.4147 10.6156 26.791C9.80938 25.1673 9.40625 23.4036 9.40625 21.5C9.40625 19.8203 9.72539 18.247 10.3637 16.7801C11.002 15.3132 11.8642 14.0366 12.9504 12.9504C14.0366 11.8642 15.3132 11.002 16.7801 10.3637C18.247 9.72539 19.8203 9.40625 21.5 9.40625C24.3891 9.40625 26.9254 10.2965 29.109 12.077C31.2926 13.8574 32.6867 16.1026 33.2914 18.8125Z" fill="white"/>
</svg>
