<svg width="53" height="59" viewBox="0 0 53 59" fill="none" xmlns="http://www.w3.org/2000/svg">
<path d="M23.3333 50.8229V30.8437L5.83333 20.7083V40.6875L23.3333 50.8229ZM29.1667 50.8229L46.6667 40.6875V20.7083L29.1667 30.8437V50.8229ZM26.25 25.8125L43.5312 15.8229L26.25 5.83333L8.96875 15.8229L26.25 25.8125ZM2.91667 45.7917C1.99306 45.2569 1.27604 44.5521 0.765625 43.6771C0.255208 42.8021 0 41.8299 0 40.7604V17.5729C0 16.5035 0.255208 15.5312 0.765625 14.6562C1.27604 13.7812 1.99306 13.0764 2.91667 12.5417L23.3333 0.802083C24.2569 0.267361 25.2292 0 26.25 0C27.2708 0 28.2431 0.267361 29.1667 0.802083L49.5833 12.5417C50.5069 13.0764 51.224 13.7812 51.7344 14.6562C52.2448 15.5312 52.5 16.5035 52.5 17.5729V40.7604C52.5 41.8299 52.2448 42.8021 51.7344 43.6771C51.224 44.5521 50.5069 45.2569 49.5833 45.7917L29.1667 57.5312C28.2431 58.066 27.2708 58.3333 26.25 58.3333C25.2292 58.3333 24.2569 58.066 23.3333 57.5312L2.91667 45.7917Z" fill="white"/>
</svg>
